#N canvas 138 461 450 300 10;
#X obj 50 45 inlet~;
#X obj 49 235 *~;
#X obj 74 97 *~;
#X obj 74 141 +~;
#X obj 74 200 /~;
#X obj 128 176 +~;
#X obj 170 112 sig~ 27;
#X obj 128 139 *~ 9;
#X obj 49 257 outlet~;
#X text 146 220 y = x * (27 + x^2) / (27 + 9*x^2);
#X obj 50 67 clip~ -6 6;
#X connect 0 0 10 0;
#X connect 1 0 8 0;
#X connect 2 0 3 0;
#X connect 2 0 7 0;
#X connect 3 0 4 0;
#X connect 4 0 1 1;
#X connect 5 0 4 1;
#X connect 6 0 3 1;
#X connect 6 0 5 1;
#X connect 7 0 5 0;
#X connect 10 0 1 0;
#X connect 10 0 2 0;
#X connect 10 0 2 1;
