#N canvas 637 175 1021 862 12;
#X obj 325 99 hsl 128 15 100 10000 0 0 empty empty empty -2 -8 0 10
-262144 -1 -1 0 1;
#X floatatom 323 119 8 0 0 0 - - -;
#X obj 64 356 dac~;
#X obj 253 10 loadbang;
#X text 382 118 osc freq;
#X obj 225 47 s lb;
#X obj 374 141 r lb;
#X obj 350 186 hsl 64 15 0 1 0 0 empty empty empty -2 -8 0 10 -262144
-1 -1 6300 1;
#X obj 311 141 osc~ 100;
#X obj 311 182 *~;
#X msg 321 78 100;
#X msg 379 163 1;
#X obj 185 399 metro 42;
#X obj 165 395 tgl 15 0 empty empty empty 17 7 0 10 -262144 -1 -1 1
1;
#X obj 320 300 bng 15 250 50 0 empty empty empty 17 7 0 10 -262144
-1 -1;
#X obj 218 142 hsl 64 15 0 10 0 0 empty empty empty -2 -8 0 10 -262144
-1 -1 0 1;
#X obj 179 138 *~;
#X obj 25 67 soundfiler;
#X obj 34 121 array define bell;
#X msg 24 42 read -resize bell.wav bell;
#X obj 66 243 tabplay~ bell;
#X obj 168 223 tgl 15 0 empty empty empty 17 7 0 10 -262144 -1 -1 0
1;
#X obj 164 242 *;
#X obj 61 223 bng 15 250 50 0 empty empty empty 17 7 0 10 -262144 -1
-1;
#X msg 87 217 stop;
#X obj 66 264 *~;
#X obj 98 266 hsl 64 15 0 1 0 0 empty empty empty -2 -8 0 10 -262144
-1 -1 0 1;
#X msg 35 100 normalize;
#X obj 165 75 t b b;
#X obj 67 290 *~;
#X obj 99 292 hsl 64 15 0 1 0 0 empty empty empty -2 -8 0 10 -262144
-1 -1 0 1;
#X obj 51 177 *~;
#X obj 105 151 hsl 64 15 0 1 0 0 empty empty empty -2 -8 0 10 -262144
-1 -1 0 1;
#X obj 51 153 adc~ 2;
#X floatatom 155 471 8 0 0 0 - - -;
#X obj 485 93 hsl 64 15 0 1 0 0 empty empty empty -2 -8 0 10 -262144
-1 -1 0 1;
#X obj 179 113 adc~ 2;
#X obj 299 380 freqAnalysis~;
#X obj 155 448 snapshot~;
#X text 53 471 Frequency (Hz);
#X obj 487 308 hsl 64 15 0 1 0 0 empty empty empty -2 -8 0 10 -262144
-1 -1 0 1;
#X obj 486 136 hsl 64 15 0 1 0 0 empty empty empty -2 -8 0 10 -262144
-1 -1 0 1;
#X obj 485 180 hsl 64 15 0 1 0 0 empty empty empty -2 -8 0 10 -262144
-1 -1 0 1;
#X obj 486 224 hsl 64 15 0 1 0 0 empty empty empty -2 -8 0 10 -262144
-1 -1 0 1;
#X msg 483 155 filterQ \$1;
#X msg 482 199 filterFreq \$1;
#X msg 484 327 decay \$1;
#X msg 483 243 hold \$1;
#X msg 462 380 gate_trig \$1;
#X obj 462 362 tgl 15 0 empty empty empty 17 7 0 10 -262144 -1 -1 0
1;
#X obj 313 407 r lb;
#X obj 322 432 tgl 15 0 empty empty empty 17 7 0 10 -262144 -1 -1 1
1;
#X floatatom 351 489 8 0 0 0 - - -;
#X obj 342 459 snapshot~;
#X obj 530 424 metro 42;
#X obj 510 423 tgl 15 0 empty empty empty 17 7 0 10 -262144 -1 -1 1
1;
#X floatatom 530 503 8 0 0 0 - - -;
#X obj 530 450 snapshot~;
#X text 317 483 Env;
#X text 494 478 Gate;
#N canvas 0 50 450 250 (subpatch) 0;
#X array env 100 float 3;
#A 0 1 1 1 1 1 1 1 1 1 1 1 1 1 1 1 1 1 1 1 1 1 1 1 1 1 1 1 1 1 1 1
1 1 1 1 1 1 1 1 1 1 1 1 1 1 1 1 1 1 1 1 1 1 1 1 1 1 1 1 1 1 1 1 1 1
1 1 1 1 1 1 1 1 1 1 1 1 1 1 1 1 1 1 1 1 1 1 1 1 1 1 1 1 1 1 1 1 1 1
1;
#X coords 0 1 100 -1 200 140 1;
#X restore 283 552 graph;
#X obj 309 516 tabwrite~ env;
#X obj 521 530 tgl 30 0 empty empty empty 17 7 0 10 -262144 -1 -1 0
1;
#X msg 482 112 thresh \$1;
#X obj 214 525 r lb;
#X obj 190 570 hsl 64 15 0 1 0 0 empty empty empty -2 -8 0 10 -262144
-1 -1 6300 1;
#X obj 151 566 *~;
#X msg 212 547 1;
#X obj 487 267 hsl 64 15 0 1 0 0 empty empty empty -2 -8 0 10 -262144
-1 -1 0 1;
#X msg 484 286 attack \$1;
#X floatatom 558 289 8 0 0 0 - - -;
#X floatatom 560 327 8 0 0 0 - - -;
#X obj 326 257 hv_tanh~;
#X obj 560 634 print;
#X obj 559 582 spigot;
#X obj 596 563 tgl 15 0 empty empty empty 17 7 0 10 -262144 -1 -1 0
1;
#X msg 348 163 0;
#X obj 363 430 metro 1;
#X obj 249 468 metro 42;
#X obj 255 443 tgl 15 0 empty empty empty 17 7 0 10 -262144 -1 -1 1
1;
#X obj 340 308 spigot;
#X obj 377 289 tgl 15 0 empty empty empty 17 7 0 10 -262144 -1 -1 0
1;
#X obj 741 575 != 0;
#X obj 615 509 t f f;
#X connect 0 0 1 0;
#X connect 0 0 8 0;
#X connect 3 0 5 0;
#X connect 3 0 10 0;
#X connect 3 0 28 0;
#X connect 6 0 11 0;
#X connect 7 0 9 1;
#X connect 8 0 9 0;
#X connect 9 0 66 0;
#X connect 9 0 37 0;
#X connect 10 0 0 0;
#X connect 11 0 7 0;
#X connect 12 0 38 0;
#X connect 13 0 12 0;
#X connect 14 0 37 0;
#X connect 15 0 16 1;
#X connect 16 0 37 0;
#X connect 19 0 17 0;
#X connect 20 0 25 0;
#X connect 20 1 22 0;
#X connect 21 0 22 1;
#X connect 22 0 20 0;
#X connect 23 0 20 0;
#X connect 24 0 20 0;
#X connect 25 0 29 0;
#X connect 25 0 37 0;
#X connect 26 0 25 1;
#X connect 27 0 18 0;
#X connect 28 0 27 0;
#X connect 28 1 19 0;
#X connect 29 0 2 0;
#X connect 29 0 2 1;
#X connect 30 0 29 1;
#X connect 31 0 37 0;
#X connect 32 0 31 1;
#X connect 33 0 31 0;
#X connect 35 0 63 0;
#X connect 36 0 16 0;
#X connect 37 0 38 0;
#X connect 37 1 53 0;
#X connect 37 1 61 0;
#X connect 37 2 57 0;
#X connect 38 0 34 0;
#X connect 40 0 46 0;
#X connect 40 0 71 0;
#X connect 41 0 44 0;
#X connect 42 0 45 0;
#X connect 43 0 47 0;
#X connect 44 0 37 0;
#X connect 45 0 37 0;
#X connect 46 0 37 0;
#X connect 47 0 37 0;
#X connect 48 0 37 0;
#X connect 49 0 48 0;
#X connect 50 0 13 0;
#X connect 50 0 51 0;
#X connect 50 0 55 0;
#X connect 50 0 79 0;
#X connect 51 0 77 0;
#X connect 52 0 66 1;
#X connect 53 0 52 0;
#X connect 54 0 57 0;
#X connect 55 0 54 0;
#X connect 57 0 56 0;
#X connect 57 0 74 0;
#X connect 57 0 83 0;
#X connect 63 0 37 0;
#X connect 64 0 67 0;
#X connect 65 0 66 1;
#X connect 66 0 2 0;
#X connect 66 0 2 1;
#X connect 67 0 65 0;
#X connect 68 0 69 0;
#X connect 68 0 70 0;
#X connect 69 0 37 0;
#X connect 74 0 73 0;
#X connect 75 0 74 1;
#X connect 76 0 7 0;
#X connect 77 0 53 0;
#X connect 78 0 61 0;
#X connect 78 0 80 0;
#X connect 79 0 78 0;
#X connect 80 0 14 0;
#X connect 81 0 80 1;
#X connect 82 0 75 0;
#X connect 83 0 74 0;
#X connect 83 1 82 0;
